<svg xmlns="http://www.w3.org/2000/svg" xmlns:xlink="http://www.w3.org/1999/xlink" width="32" height="32" viewBox="0 0 32 32" fill="none">
<rect x="0" y="0" width="32" height="32"   fill="#4D53E8" >
</rect>
<g filter="url(#filter_s-16RJdk8yN6bZ8BMNaJB)">
<path d="M16.134 5.04204C15.9969 5.04205 15.8599 5.04543 15.7229 5.05218C15.5859 5.05893 15.4492 5.06903 15.3128 5.08249C15.1764 5.09594 15.0403 5.11274 14.9046 5.13288C14.769 5.15302 14.634 5.17647 14.4994 5.20324C14.365 5.23001 14.2312 5.26006 14.0982 5.2934C13.9652 5.32673 13.8331 5.36331 13.7019 5.40314C13.5706 5.44296 13.4405 5.48598 13.3114 5.53219C13.1823 5.5784 13.0544 5.62776 12.9277 5.68025C12.801 5.73275 12.6757 5.78832 12.5518 5.84697C12.4279 5.90562 12.3054 5.96727 12.1845 6.03192C12.0636 6.09658 11.9443 6.16417 11.8267 6.23468C11.7091 6.30519 11.5933 6.37855 11.4793 6.45475C11.3653 6.53095 11.2532 6.6099 11.1431 6.69161C11.033 6.77331 10.9249 6.85766 10.8189 6.94467C10.713 7.03168 10.6092 7.12123 10.5076 7.21334C10.406 7.30544 10.3067 7.39998 10.2098 7.49696C10.1129 7.59394 10.0184 7.69324 9.92628 7.79485C9.83422 7.89647 9.7447 8.00029 9.65773 8.1063C9.57076 8.21231 9.48644 8.3204 9.40478 8.43055C9.32312 8.5407 9.24421 8.65279 9.16805 8.76682C9.09189 8.88085 9.01858 8.99668 8.9481 9.11431C8.87763 9.23194 8.81009 9.35122 8.74547 9.47217C8.68086 9.59311 8.61925 9.71557 8.56064 9.83954C8.50204 9.96354 8.44652 10.0889 8.39407 10.2155C8.34163 10.3422 8.29232 10.4701 8.24614 10.5992C8.19998 10.7284 8.15701 10.8585 8.11723 10.9897C8.07745 11.121 8.04092 11.2531 8.00763 11.3861C7.97435 11.5191 7.94434 11.6529 7.91762 11.7874C7.8909 11.9219 7.86749 12.057 7.8474 12.1926C7.82732 12.3282 7.81057 12.4643 7.79715 12.6007C7.78375 12.7372 7.7737 12.8739 7.767 13.0109C7.7603 13.1479 7.75697 13.2849 7.757 13.422L7.757 16.936L5.747 16.936C3.437 16.936 2.915 20.174 5.107 20.901L7.757 21.779L7.757 23.296C7.757 24.796 9.335 25.771 10.676 25.1L12.143 24.366C12.211 24.332 12.293 24.366 12.317 24.439C13.507 28.154 18.76 28.154 19.95 24.439C19.9556 24.4217 19.9645 24.4064 19.9767 24.393C19.989 24.3796 20.0035 24.3694 20.0202 24.3624C20.037 24.3553 20.0544 24.3521 20.0725 24.3528C20.0907 24.3534 20.1078 24.3578 20.124 24.366L21.592 25.1C22.932 25.77 24.51 24.795 24.51 23.296L24.51 21.779L27.16 20.901C29.352 20.174 28.83 16.936 26.521 16.936L24.51 16.936L24.51 13.42C24.51 8.79204 20.76 5.04004 16.134 5.04004L16.134 5.04204Z" fill-rule="evenodd"  fill="#FFFFFF" >
</path>
</g>
<g filter="url(#filter_fYdH_mnga6MVTynu2-vgi)">
<path d="M18.969 17.746C18.969 17.6928 18.9742 17.6401 18.9846 17.5879C18.9949 17.5357 19.0103 17.485 19.0307 17.4358C19.051 17.3867 19.076 17.34 19.1056 17.2957C19.1351 17.2515 19.1687 17.2105 19.2064 17.1729C19.244 17.1353 19.2849 17.1017 19.3292 17.0721C19.3735 17.0425 19.4202 17.0176 19.4693 16.9972C19.5185 16.9768 19.5692 16.9615 19.6214 16.9511C19.6736 16.9407 19.7263 16.9355 19.7795 16.9355C19.8327 16.9355 19.8854 16.9407 19.9376 16.9511C19.9898 16.9615 20.0405 16.9768 20.0897 16.9972C20.1388 17.0176 20.1855 17.0425 20.2298 17.0721C20.2741 17.1017 20.315 17.1353 20.3526 17.1729C20.3903 17.2105 20.4239 17.2515 20.4534 17.2957C20.483 17.34 20.508 17.3867 20.5283 17.4358C20.5487 17.485 20.5641 17.5357 20.5744 17.5879C20.5848 17.6401 20.59 17.6928 20.59 17.746C20.59 17.7992 20.5848 17.8519 20.5744 17.9041C20.5641 17.9563 20.5487 18.007 20.5283 18.0562C20.508 18.1054 20.483 18.1521 20.4534 18.1963C20.4239 18.2406 20.3903 18.2815 20.3526 18.3191C20.315 18.3568 20.2741 18.3904 20.2298 18.4199C20.1855 18.4495 20.1388 18.4745 20.0897 18.4948C20.0405 18.5152 19.9898 18.5306 19.9376 18.5409C19.8854 18.5513 19.8327 18.5565 19.7795 18.5565C19.7263 18.5565 19.6736 18.5513 19.6214 18.5409C19.5692 18.5306 19.5185 18.5152 19.4693 18.4948C19.4202 18.4745 19.3735 18.4495 19.3292 18.4199C19.2849 18.3904 19.244 18.3568 19.2064 18.3191C19.1687 18.2815 19.1351 18.2406 19.1056 18.1963C19.076 18.1521 19.051 18.1054 19.0307 18.0562C19.0103 18.007 18.9949 17.9563 18.9846 17.9041C18.9742 17.8519 18.969 17.7992 18.969 17.746Z"   fill="url(#linear_fill_Q8bXt-tDfVimfS5_F98Eb)" >
</path>
</g>
<g filter="url(#filter_0TjuTW5gl1RoWn_c00N6G)">
<path d="M13.55 20.732C13.514 20.694 13.482 20.653 13.454 20.6088C13.426 20.5646 13.4024 20.5182 13.3833 20.4694C13.3643 20.4207 13.3501 20.3706 13.3407 20.3191C13.3314 20.2677 13.3271 20.2158 13.3277 20.1634C13.3285 20.1112 13.3342 20.0594 13.3448 20.0081C13.3556 19.9569 13.3711 19.9072 13.3914 19.859C13.4118 19.8108 13.4365 19.765 13.4657 19.7216C13.4949 19.6782 13.528 19.6379 13.5649 19.6009C13.6019 19.5639 13.6421 19.5308 13.6855 19.5016C13.7289 19.4724 13.7747 19.4476 13.8229 19.4272C13.8711 19.4068 13.9208 19.3913 13.972 19.3805C14.0232 19.3697 14.075 19.364 14.1272 19.3632C14.1796 19.3625 14.2315 19.3668 14.2829 19.3761C14.3345 19.3854 14.3846 19.3996 14.4333 19.4186C14.4821 19.4376 14.5285 19.4611 14.5727 19.4891C14.6169 19.5171 14.658 19.5491 14.696 19.585C14.743 19.632 14.7921 19.6765 14.8433 19.7186C14.8947 19.7608 14.9479 19.8003 15.0031 19.8371C15.0583 19.8741 15.1151 19.9082 15.1736 19.9394C15.2322 19.9708 15.2921 19.9991 15.3534 20.0245C15.4148 20.0499 15.4772 20.0723 15.5407 20.0915C15.6043 20.1108 15.6686 20.1269 15.7336 20.1399C15.7988 20.1529 15.8643 20.1626 15.9303 20.169C15.9964 20.1756 16.0626 20.1788 16.129 20.1788C16.1954 20.1788 16.2617 20.1756 16.3277 20.169C16.3937 20.1626 16.4593 20.1529 16.5244 20.1399C16.5895 20.1269 16.6538 20.1108 16.7173 20.0915C16.7809 20.0723 16.8433 20.0499 16.9046 20.0245C16.966 19.9991 17.0259 19.9708 17.0844 19.9394C17.143 19.9082 17.1998 19.8741 17.2549 19.8371C17.3101 19.8003 17.3634 19.7608 17.4147 19.7186C17.466 19.6765 17.5151 19.632 17.562 19.585C17.5997 19.5473 17.6407 19.5136 17.6849 19.484C17.7292 19.4544 17.7759 19.4294 17.8251 19.4089C17.8744 19.3885 17.9251 19.3731 17.9773 19.3627C18.0296 19.3523 18.0824 19.347 18.1356 19.347C18.189 19.347 18.2417 19.3522 18.2939 19.3625C18.3462 19.3729 18.397 19.3883 18.4462 19.4087C18.4954 19.4291 18.5422 19.4541 18.5865 19.4837C18.6308 19.5133 18.6718 19.5469 18.7094 19.5846C18.7472 19.6223 18.7808 19.6633 18.8103 19.7075C18.8399 19.7519 18.8649 19.7986 18.8853 19.8478C18.9057 19.8971 18.9211 19.9479 18.9315 20.0001C18.9419 20.0523 18.947 20.1051 18.947 20.1584C18.947 20.2117 18.9418 20.2645 18.9313 20.3167C18.9209 20.3689 18.9055 20.4197 18.8851 20.4689C18.8647 20.5181 18.8396 20.5649 18.81 20.6091C18.7804 20.6534 18.7468 20.6944 18.709 20.732C18.6246 20.8166 18.5362 20.8968 18.4438 20.9726C18.3514 21.0485 18.2556 21.1196 18.1562 21.186C18.0569 21.2525 17.9545 21.3139 17.8491 21.3702C17.7437 21.4266 17.6358 21.4777 17.5254 21.5234C17.415 21.5692 17.3027 21.6095 17.1883 21.6441C17.0739 21.6789 16.9581 21.7079 16.8409 21.7312C16.7237 21.7546 16.6057 21.7721 16.4867 21.7838C16.3678 21.7956 16.2486 21.8014 16.129 21.8014C16.0095 21.8014 15.8903 21.7956 15.7713 21.7838C15.6524 21.7721 15.5343 21.7546 15.4171 21.7312C15.2999 21.7079 15.1841 21.6789 15.0697 21.6441C14.9554 21.6095 14.843 21.5692 14.7326 21.5234C14.6222 21.4777 14.5143 21.4266 14.4089 21.3702C14.3035 21.3139 14.2012 21.2525 14.1018 21.186C14.0025 21.1196 13.9066 21.0485 13.8142 20.9726C13.7219 20.8968 13.6335 20.8166 13.549 20.732L13.55 20.732Z"   fill="url(#linear_fill_OG8U5Z_FaKgHCkoMlz4I2)" >
</path>
</g>
<g filter="url(#filter_DVAorlzQkPsiZtyxnQAK5)">
<path d="M12.483 16.124C12.4297 16.124 12.377 16.1291 12.3247 16.1394C12.2724 16.1498 12.2217 16.1651 12.1725 16.1855C12.1232 16.2059 12.0765 16.2308 12.0322 16.2604C11.9879 16.29 11.9469 16.3236 11.9092 16.3612C11.8715 16.3989 11.8379 16.4399 11.8084 16.4842C11.7788 16.5285 11.7538 16.5753 11.7335 16.6245C11.7131 16.6737 11.6977 16.7245 11.6874 16.7767C11.6771 16.829 11.6719 16.8818 11.672 16.935L11.672 18.557C11.672 18.6102 11.6772 18.6629 11.6876 18.7151C11.6979 18.7673 11.7133 18.818 11.7337 18.8672C11.754 18.9164 11.779 18.9631 11.8086 19.0073C11.8381 19.0516 11.8717 19.0925 11.9094 19.1301C11.947 19.1678 11.9879 19.2014 12.0322 19.2309C12.0765 19.2605 12.1232 19.2855 12.1723 19.3058C12.2215 19.3262 12.2722 19.3416 12.3244 19.3519C12.3766 19.3623 12.4293 19.3675 12.4825 19.3675C12.5357 19.3675 12.5884 19.3623 12.6406 19.3519C12.6928 19.3416 12.7435 19.3262 12.7927 19.3058C12.8418 19.2855 12.8885 19.2605 12.9328 19.2309C12.9771 19.2014 13.018 19.1678 13.0556 19.1301C13.0933 19.0925 13.1269 19.0516 13.1564 19.0073C13.186 18.9631 13.211 18.9164 13.2313 18.8672C13.2517 18.818 13.2671 18.7673 13.2774 18.7151C13.2878 18.6629 13.293 18.6102 13.293 18.557L13.293 16.935C13.2931 16.8818 13.2879 16.8291 13.2776 16.7768C13.2673 16.7246 13.2519 16.6739 13.2316 16.6247C13.2113 16.5755 13.1863 16.5288 13.1568 16.4845C13.1273 16.4403 13.0937 16.3993 13.0561 16.3616C13.0185 16.324 12.9776 16.2903 12.9333 16.2607C12.8891 16.2311 12.8424 16.2062 12.7932 16.1858C12.744 16.1654 12.6933 16.15 12.6411 16.1396C12.5889 16.1292 12.5362 16.124 12.483 16.124Z"   fill="url(#linear_fill_P1skCL5XTqcvwLEnXOeXB)" >
</path>
</g>
<defs>
<filter id="filter_s-16RJdk8yN6bZ8BMNaJB" x="3.71087646484375" y="5.0400390625" width="24.8453369140625" height="22.185302734375" filterUnits="userSpaceOnUse" color-interpolation-filters="sRGB">
<feFlood flood-opacity="0" result="feFloodId_s-16RJdk8yN6bZ8BMNaJB"/>
<feBlend mode="normal" in="SourceGraphic" in2="feFloodId_s-16RJdk8yN6bZ8BMNaJB" result="shape_s-16RJdk8yN6bZ8BMNaJB"/>
<feColorMatrix in="SourceAlpha" type="matrix" values="0 0 0 0 0 0 0 0 0 0 0 0 0 0 0 0 0 0 127 0" result="hardAlpha_s-16RJdk8yN6bZ8BMNaJB"/>
<feOffset dx="0" dy="-1.067"/>
<feGaussianBlur stdDeviation="0.8"/>
<feComposite in2="hardAlpha_s-16RJdk8yN6bZ8BMNaJB" operator="arithmetic" k2="-1" k3="1"/>
<feColorMatrix type="matrix" values="0 0 0 0 0.30196078431372547 0 0 0 0 0.3254901960784314 0 0 0 0 0.9098039215686274 0 0 0 0.15 0"/>
<feBlend mode="normal" in2="shape_s-16RJdk8yN6bZ8BMNaJB" result="innerShadow_0_s-16RJdk8yN6bZ8BMNaJB" />
</filter>
<linearGradient id="linear_fill_Q8bXt-tDfVimfS5_F98Eb" x1="19.826995849609375" y1="17.2060546875" x2="19.699981689453125" y2="22.403076171875" gradientUnits="userSpaceOnUse">
<stop offset="0" stop-color="#272DCC"  />
<stop offset="1" stop-color="#9A9DF2"  />
</linearGradient>
<filter id="filter_fYdH_mnga6MVTynu2-vgi" x="18.434994140625008" y="16.268546874999856" width="2.6890021972656086" height="2.688971679687711" filterUnits="userSpaceOnUse" color-interpolation-filters="sRGB">
<feFlood flood-opacity="0" result="feFloodId_fYdH_mnga6MVTynu2-vgi"/>
<feColorMatrix in="SourceAlpha" type="matrix" values="0 0 0 0 0 0 0 0 0 0 0 0 0 0 0 0 0 0 127 0" result="hardAlpha_fYdH_mnga6MVTynu2-vgi"/>
<feOffset dx="0" dy="-0.133"/>
<feGaussianBlur stdDeviation="0.267"/>
<feComposite in2="hardAlpha_fYdH_mnga6MVTynu2-vgi" operator="out"/>
<feColorMatrix type="matrix" values="0 0 0 0 0.30196078431372547 0 0 0 0 0.3254901960784314 0 0 0 0 0.9098039215686274 0 0 0 0.4 0"/>
<feBlend mode="normal" in2="feFloodId_fYdH_mnga6MVTynu2-vgi" result="dropShadow_1_fYdH_mnga6MVTynu2-vgi"/>
<feBlend mode="normal" in="SourceGraphic" in2="dropShadow_1_fYdH_mnga6MVTynu2-vgi" result="shape_fYdH_mnga6MVTynu2-vgi"/>
</filter>
<linearGradient id="linear_fill_OG8U5Z_FaKgHCkoMlz4I2" x1="15.863006591796875" y1="20.133056640625" x2="15.329010009765625" y2="22.133056640625" gradientUnits="userSpaceOnUse">
<stop offset="0" stop-color="#2B33E6"  />
<stop offset="1" stop-color="#A19AF2"  />
</linearGradient>
<filter id="filter_0TjuTW5gl1RoWn_c00N6G" x="12.793056884765633" y="18.680045898437356" width="6.687995117187484" height="3.522345703125211" filterUnits="userSpaceOnUse" color-interpolation-filters="sRGB">
<feFlood flood-opacity="0" result="feFloodId_0TjuTW5gl1RoWn_c00N6G"/>
<feColorMatrix in="SourceAlpha" type="matrix" values="0 0 0 0 0 0 0 0 0 0 0 0 0 0 0 0 0 0 127 0" result="hardAlpha_0TjuTW5gl1RoWn_c00N6G"/>
<feOffset dx="0" dy="-0.133"/>
<feGaussianBlur stdDeviation="0.267"/>
<feComposite in2="hardAlpha_0TjuTW5gl1RoWn_c00N6G" operator="out"/>
<feColorMatrix type="matrix" values="0 0 0 0 0.30196078431372547 0 0 0 0 0.3254901960784314 0 0 0 0 0.9098039215686274 0 0 0 0.4 0"/>
<feBlend mode="normal" in2="feFloodId_0TjuTW5gl1RoWn_c00N6G" result="dropShadow_1_0TjuTW5gl1RoWn_c00N6G"/>
<feBlend mode="normal" in="SourceGraphic" in2="dropShadow_1_0TjuTW5gl1RoWn_c00N6G" result="shape_0TjuTW5gl1RoWn_c00N6G"/>
</filter>
<linearGradient id="linear_fill_P1skCL5XTqcvwLEnXOeXB" x1="12.529998779296875" y1="16.6669921875" x2="12.02301025390625" y2="27.0419921875" gradientUnits="userSpaceOnUse">
<stop offset="0" stop-color="#272DCC"  />
<stop offset="1" stop-color="#9A9DF2"  />
</linearGradient>
<filter id="filter_DVAorlzQkPsiZtyxnQAK5" x="11.137936035156258" y="15.456901367187356" width="2.6891242675781086" height="4.311652343750211" filterUnits="userSpaceOnUse" color-interpolation-filters="sRGB">
<feFlood flood-opacity="0" result="feFloodId_DVAorlzQkPsiZtyxnQAK5"/>
<feColorMatrix in="SourceAlpha" type="matrix" values="0 0 0 0 0 0 0 0 0 0 0 0 0 0 0 0 0 0 127 0" result="hardAlpha_DVAorlzQkPsiZtyxnQAK5"/>
<feOffset dx="0" dy="-0.133"/>
<feGaussianBlur stdDeviation="0.267"/>
<feComposite in2="hardAlpha_DVAorlzQkPsiZtyxnQAK5" operator="out"/>
<feColorMatrix type="matrix" values="0 0 0 0 0.30196078431372547 0 0 0 0 0.3254901960784314 0 0 0 0 0.9098039215686274 0 0 0 0.4 0"/>
<feBlend mode="normal" in2="feFloodId_DVAorlzQkPsiZtyxnQAK5" result="dropShadow_1_DVAorlzQkPsiZtyxnQAK5"/>
<feBlend mode="normal" in="SourceGraphic" in2="dropShadow_1_DVAorlzQkPsiZtyxnQAK5" result="shape_DVAorlzQkPsiZtyxnQAK5"/>
</filter>
</defs>
</svg>
